<?xml version="1.0" encoding="UTF-8"?>
<!DOCTYPE svg PUBLIC "-//W3C//DTD SVG 1.1//EN" "http://www.w3.org/Graphics/SVG/1.1/DTD/svg11.dtd">
<svg version="1.1" xmlns="http://www.w3.org/2000/svg" xmlns:xlink="http://www.w3.org/1999/xlink" x="0px" y="0px" width="128" height="128" viewBox="0, 0, 128, 128">
  <g id="Background">
    <rect x="0" y="0" width="128" height="128" fill="#000000" fill-opacity="0"/>
  </g>
  <g id="Background">
    <path d="M18.093,6 L109.907,6 C116.561,6 122,11.439 122,18.093 L122,109.907 C122,116.561 116.561,122 109.907,122 L18.093,122 C11.439,122 6,116.561 6,109.907 L6,18.093 C6,11.439 11.439,6 18.093,6" fill="#727272"/>
    <path d="M6,35.915 L122,35.915" fill-opacity="0" stroke="#EAECEC" stroke-width="4"/>
    <path d="M6,59.915 L122,59.915" fill-opacity="0" stroke="#EAECEC" stroke-width="4"/>
    <path d="M6,83.915 L122,83.915" fill-opacity="0" stroke="#EAECEC" stroke-width="4"/>
    <path d="M49.17,59.382 C42.188,47.994 49.535,31.523 56.977,25.562 L57.843,25.562 C67.313,37.4 56.405,52.176 49.17,59.382 M57.264,81.928 C56.102,78.949 54.546,76.361 53.218,73.546 C59.358,66.771 67.615,57.133 69.983,46.085 C73.339,30.429 65.13,17.839 55.819,11.399 L54.662,11.399 C41.26,20.22 30.956,45.303 40.787,66.898 C31.646,75.773 23.932,86.079 22,102.162 L22,105.92 C23.174,112.153 25.503,117.563 28.894,121.949 C29.399,121.98 29.906,122 30.419,122 L40.136,122 C34.553,118.326 31.121,112.28 30.96,104.476 C30.714,92.533 37.939,84.481 46.28,79.616 C46.616,79.57 46.795,79.681 46.858,79.905 C47.941,81.522 48.824,83.337 49.75,85.108 C43.913,89.726 39.439,102.006 44.257,111.124 C46.413,111.255 47.326,110.146 48.593,109.389 C47.048,102.783 49.582,96.426 54.085,94.07 C56.45,103.044 59.192,111.644 60.176,122 L68.982,122 C67.571,110.686 64.176,100.024 61.601,90.888 C81.043,87.589 83.386,114.821 71.152,122 L83.771,122 C86.485,118.458 88.357,114.074 89.35,108.811 L89.35,101.873 C86.603,87.824 74.458,77.762 57.264,81.928" fill="#EAECEC"/>
  </g>
  <defs/>
</svg>
